<?xml version="1.0" encoding="utf-8"?>
<!-- Generator: Adobe Illustrator 16.0.0, SVG Export Plug-In . SVG Version: 6.00 Build 0)  -->
<!DOCTYPE svg PUBLIC "-//W3C//DTD SVG 1.1//EN" "http://www.w3.org/Graphics/SVG/1.1/DTD/svg11.dtd">
<svg version="1.1" id="Layer_1" xmlns="http://www.w3.org/2000/svg" xmlns:xlink="http://www.w3.org/1999/xlink" x="0px" y="0px"
	 width="400px" height="400px" viewBox="0 0 400 400" enable-background="new 0 0 400 400" xml:space="preserve">
<g>
	<title>Layer 1</title>
	<path id="svg_7" fill="#FFFFFF" d="M397.9,31.35c0-7.967-2.815-14.768-8.45-20.4c-5.598-5.598-12.381-8.398-20.35-8.4H30.9
		c-7.967,0.003-14.767,2.804-20.398,8.4c-5.598,5.633-8.396,12.433-8.4,20.4v338.2c0.002,7.97,2.802,14.753,8.4,20.351
		c5.633,5.634,12.433,8.449,20.398,8.449h338.2c7.97,0.002,14.753-2.814,20.35-8.449c5.636-5.598,8.451-12.381,8.45-20.351V31.35
		 M385.35,15.05c4.5,4.501,6.75,9.934,6.75,16.3v338.2c-0.001,6.364-2.251,11.78-6.75,16.25c-4.47,4.499-9.887,6.749-16.25,6.75
		H30.9c-6.365,0.001-11.799-2.249-16.3-6.75c-4.469-4.47-6.702-9.886-6.7-16.25V31.35c-0.003-6.367,2.23-11.8,6.7-16.3
		c4.5-4.47,9.935-6.703,16.3-6.7h338.2C375.464,8.348,380.88,10.581,385.35,15.05"/>
</g>
<g id="svg_5_1_" enable-background="new    ">
	<path fill="#FFFFFF" d="M103.355,160.191c0,2.195-0.625,4.094-1.875,5.695c-1.359,1.742-3.102,2.613-5.227,2.613
		c-0.406,0-1.018-0.016-1.834-0.047s-1.428-0.047-1.834-0.047c-0.367,0-0.92,0.016-1.658,0.047s-1.291,0.047-1.658,0.047
		c-0.195,0-0.293-0.098-0.293-0.293c0-0.852,0.033-2.137,0.1-3.855s0.1-3.008,0.1-3.867c0-0.906-0.031-2.27-0.094-4.09
		s-0.094-3.184-0.094-4.09c0-0.164,0.102-0.246,0.305-0.246c0.289,0,0.721,0.004,1.295,0.012s1.006,0.012,1.295,0.012
		c0.266,0,0.672-0.004,1.219-0.012s0.961-0.012,1.242-0.012c2.711,0,4.73,0.512,6.059,1.535c0.953,0.734,1.691,1.723,2.215,2.965
		C103.109,157.715,103.355,158.926,103.355,160.191z M100.484,160.191c0-1.688-0.48-3.063-1.441-4.125
		c-1-1.102-2.336-1.652-4.008-1.652c-1.383,0-1.941-0.008-1.676-0.023c-0.914,0.047-1.371,0.215-1.371,0.504
		c0,0.602-0.014,1.502-0.041,2.701s-0.041,2.1-0.041,2.701c0,0.594,0.014,1.484,0.041,2.672s0.041,2.078,0.041,2.672
		c0,0.297,0.469,0.469,1.406,0.516c-0.125-0.008,0.445-0.012,1.711-0.012c0.898,0,1.613-0.094,2.145-0.281
		c0.656-0.234,1.246-0.668,1.77-1.301C99.996,163.375,100.484,161.918,100.484,160.191z"/>
	<path fill="#FFFFFF" d="M111.933,157.496c0,0.859-0.059,1.641-0.176,2.344c-0.023,0.18-0.102,0.27-0.234,0.27
		c-0.164,0-0.412-0.018-0.744-0.053s-0.584-0.053-0.756-0.053c-0.984,0-1.613,0.277-1.887,0.832
		c-0.164,0.336-0.246,1.035-0.246,2.098v1.289c0,0.438,0.018,1.102,0.053,1.992s0.053,1.555,0.053,1.992
		c0,0.211-0.09,0.316-0.27,0.316c-0.242,0-0.609-0.004-1.102-0.012s-0.859-0.012-1.102-0.012c-0.18,0-0.27-0.098-0.27-0.293
		c0-0.633,0.01-1.586,0.029-2.859s0.029-2.23,0.029-2.871c0-1.93-0.18-3.48-0.539-4.652c-0.016-0.063-0.023-0.109-0.023-0.141
		c0-0.094,0.051-0.16,0.152-0.199c0.289-0.031,0.695-0.078,1.219-0.141c0.844-0.156,1.234-0.234,1.172-0.234
		c0.125,0,0.207,0.23,0.246,0.691s0.109,0.691,0.211,0.691c0.016,0,0.035-0.008,0.059-0.023c0.32-0.203,0.641-0.406,0.961-0.609
		c0.352-0.211,0.711-0.367,1.078-0.469c0.305-0.094,0.695-0.141,1.172-0.141C111.629,157.25,111.933,157.332,111.933,157.496z"/>
	<path fill="#FFFFFF" d="M123.84,162.793c0,1.633-0.535,3.027-1.605,4.184c-1.094,1.195-2.449,1.793-4.066,1.793
		c-1.625,0-2.984-0.594-4.078-1.781c-1.07-1.148-1.605-2.539-1.605-4.172s0.535-3.023,1.605-4.172
		c1.102-1.172,2.461-1.758,4.078-1.758c1.609,0,2.961,0.586,4.055,1.758C123.301,159.785,123.84,161.168,123.84,162.793z
		 M121.367,162.816c0-0.953-0.293-1.766-0.879-2.438c-0.609-0.711-1.383-1.066-2.32-1.066s-1.715,0.352-2.332,1.055
		c-0.586,0.68-0.879,1.496-0.879,2.449c0,0.938,0.297,1.75,0.891,2.438c0.625,0.727,1.398,1.09,2.32,1.09
		c0.93,0,1.703-0.363,2.32-1.09C121.074,164.566,121.367,163.754,121.367,162.816z"/>
	<path fill="#FFFFFF" d="M137.211,162.863c0,1.578-0.5,2.949-1.5,4.113c-1.047,1.227-2.348,1.84-3.902,1.84
		c-0.969,0-1.816-0.301-2.543-0.902c-0.328-0.305-0.656-0.613-0.984-0.926c-0.047,0.023-0.078,0.086-0.094,0.188
		c-0.008,0.047-0.012,0.484-0.012,1.313l-0.012,3.305c0,0.25-0.09,0.375-0.27,0.375c-1.203,0-1.914-0.016-2.133-0.047
		c-0.18-0.023-0.27-0.125-0.27-0.305c0-1,0.008-2.5,0.023-4.5s0.023-3.5,0.023-4.5c0-1.836-0.117-3.559-0.352-5.168
		c-0.016-0.094-0.023-0.156-0.023-0.188c0-0.086,0.039-0.141,0.117-0.164c0.297-0.016,0.73-0.059,1.301-0.129
		c0.766-0.141,1.195-0.211,1.289-0.211c0.133,0,0.219,0.234,0.258,0.703c0.023,0.313,0.043,0.621,0.059,0.926
		c0,0.063,0.023,0.125,0.07,0.188c0.055-0.031,0.117-0.086,0.188-0.164c1.094-1.117,2.199-1.676,3.316-1.676
		c1.547,0,2.852,0.605,3.914,1.816C136.699,159.914,137.211,161.285,137.211,162.863z M134.469,162.816
		c0-0.938-0.293-1.762-0.879-2.473c-0.617-0.758-1.387-1.137-2.309-1.137c-0.906,0-1.648,0.391-2.227,1.172
		c-0.531,0.703-0.797,1.523-0.797,2.461c0,0.953,0.273,1.781,0.82,2.484c0.602,0.758,1.367,1.137,2.297,1.137
		c0.891,0,1.641-0.395,2.25-1.184C134.187,164.543,134.469,163.723,134.469,162.816z"/>
	<path fill="#FFFFFF" d="M154.894,160.344c0,1.32-0.039,2.117-0.117,2.391c-0.102,0.352-1.068,1.885-2.9,4.6
		s-2.92,4.232-3.264,4.553c-0.313,0.281-1.32,0.422-3.023,0.422c-0.203,0-0.334-0.021-0.393-0.064s-0.191-0.326-0.398-0.85
		s-0.311-0.836-0.311-0.938c0-0.172,0.207-0.258,0.621-0.258c0.875,0,1.52-0.125,1.934-0.375c0.141-0.086,0.354-0.355,0.639-0.809
		s0.428-0.758,0.428-0.914c0-0.211-0.566-1.035-1.699-2.473c-1.195-1.523-1.863-2.488-2.004-2.895
		c-0.109-0.32-0.164-1.086-0.164-2.297c0-0.297,0.004-0.744,0.012-1.342s0.012-1.049,0.012-1.354c0-0.172,0.094-0.258,0.281-0.258
		c0.25,0,0.619,0.016,1.107,0.047s0.857,0.047,1.107,0.047c0.125,0,0.188,0.082,0.188,0.246c0,0.219-0.012,0.547-0.035,0.984
		s-0.035,0.766-0.035,0.984c0,0.953,0.031,1.664,0.094,2.133c0.047,0.297,0.473,1.035,1.277,2.215s1.301,1.77,1.488,1.77
		c0.133,0,0.555-0.58,1.266-1.74s1.09-1.877,1.137-2.15c0.063-0.391,0.094-1.102,0.094-2.133c0-0.227-0.023-0.561-0.07-1.002
		s-0.07-0.771-0.07-0.99c0-0.195,0.063-0.293,0.188-0.293c0.25,0,0.627-0.018,1.131-0.053s0.881-0.053,1.131-0.053
		C154.777,157.496,154.894,158.445,154.894,160.344z"/>
	<path fill="#FFFFFF" d="M167.07,162.793c0,1.633-0.535,3.027-1.605,4.184c-1.094,1.195-2.449,1.793-4.066,1.793
		c-1.625,0-2.984-0.594-4.078-1.781c-1.07-1.148-1.605-2.539-1.605-4.172s0.535-3.023,1.605-4.172
		c1.102-1.172,2.461-1.758,4.078-1.758c1.609,0,2.961,0.586,4.055,1.758C166.531,159.785,167.07,161.168,167.07,162.793z
		 M164.597,162.816c0-0.953-0.293-1.766-0.879-2.438c-0.609-0.711-1.383-1.066-2.32-1.066s-1.715,0.352-2.332,1.055
		c-0.586,0.68-0.879,1.496-0.879,2.449c0,0.938,0.297,1.75,0.891,2.438c0.625,0.727,1.398,1.09,2.32,1.09
		c0.93,0,1.703-0.363,2.32-1.09C164.304,164.566,164.597,163.754,164.597,162.816z"/>
	<path fill="#FFFFFF" d="M179.574,157.871c0,0.57-0.023,1.432-0.07,2.584s-0.07,2.018-0.07,2.596c0,0.57,0.018,1.424,0.053,2.561
		s0.053,1.99,0.053,2.561c0,0.156-0.074,0.258-0.223,0.305c-0.063,0.016-0.855,0.023-2.379,0.023c-0.094,0-0.15-0.293-0.17-0.879
		s-0.064-0.879-0.135-0.879c-0.039,0-0.098,0.035-0.176,0.105c-1.305,1.133-2.594,1.699-3.867,1.699
		c-1.727,0-2.867-0.625-3.422-1.875c-0.344-0.773-0.516-2.164-0.516-4.172c0-1.813,0.145-3.348,0.434-4.605
		c0.07-0.305,0.199-0.457,0.387-0.457c0.227,0,0.566,0.004,1.02,0.012s0.793,0.012,1.02,0.012c0.156,0,0.234,0.086,0.234,0.258
		c0,0.305-0.051,0.813-0.152,1.523c-0.109,0.758-0.168,1.293-0.176,1.605c-0.023,0.469-0.035,0.984-0.035,1.547
		c0,1.367,0.098,2.285,0.293,2.754c0.336,0.844,1.082,1.266,2.238,1.266c0.492,0,1.074-0.242,1.746-0.727
		c0.711-0.508,1.078-0.996,1.102-1.465c0.039-0.586,0.059-2.648,0.059-6.188c0-0.383,0.16-0.574,0.48-0.574h1.934
		C179.461,157.461,179.574,157.598,179.574,157.871z"/>
	<path fill="#FFFFFF" d="M188.668,157.496c0,0.859-0.059,1.641-0.176,2.344c-0.023,0.18-0.102,0.27-0.234,0.27
		c-0.164,0-0.412-0.018-0.744-0.053s-0.584-0.053-0.756-0.053c-0.984,0-1.613,0.277-1.887,0.832
		c-0.164,0.336-0.246,1.035-0.246,2.098v1.289c0,0.438,0.018,1.102,0.053,1.992s0.053,1.555,0.053,1.992
		c0,0.211-0.09,0.316-0.27,0.316c-0.242,0-0.609-0.004-1.102-0.012s-0.859-0.012-1.102-0.012c-0.18,0-0.27-0.098-0.27-0.293
		c0-0.633,0.01-1.586,0.029-2.859s0.029-2.23,0.029-2.871c0-1.93-0.18-3.48-0.539-4.652c-0.016-0.063-0.023-0.109-0.023-0.141
		c0-0.094,0.051-0.16,0.152-0.199c0.289-0.031,0.695-0.078,1.219-0.141c0.844-0.156,1.234-0.234,1.172-0.234
		c0.125,0,0.207,0.23,0.246,0.691s0.109,0.691,0.211,0.691c0.016,0,0.035-0.008,0.059-0.023c0.32-0.203,0.641-0.406,0.961-0.609
		c0.352-0.211,0.711-0.367,1.078-0.469c0.305-0.094,0.695-0.141,1.172-0.141C188.363,157.25,188.668,157.332,188.668,157.496z"/>
	<path fill="#FFFFFF" d="M199.004,154.484c0,0.961-0.535,1.441-1.605,1.441c-1.086,0-1.629-0.48-1.629-1.441
		c0-0.43,0.168-0.785,0.504-1.066c0.313-0.266,0.688-0.398,1.125-0.398s0.814,0.137,1.131,0.41S199.004,154.055,199.004,154.484z
		 M198.922,157.66c0,0.602-0.037,1.51-0.111,2.725s-0.111,2.127-0.111,2.736c0,0.57,0.012,1.424,0.035,2.561
		s0.035,1.986,0.035,2.549c0,0.164-0.07,0.246-0.211,0.246h-2.285c-0.164,0-0.246-0.16-0.246-0.48c0-0.539,0.014-1.35,0.041-2.432
		s0.041-1.896,0.041-2.443c0-0.609-0.045-1.523-0.135-2.742s-0.135-2.133-0.135-2.742c0-0.133,0.082-0.199,0.246-0.199
		c0.141,0,0.357,0.02,0.65,0.059s0.514,0.059,0.662,0.059s0.369-0.02,0.662-0.059s0.514-0.059,0.662-0.059
		C198.855,157.438,198.922,157.512,198.922,157.66z"/>
	<path fill="#FFFFFF" d="M219.055,168.066c0,0.305-0.09,0.457-0.27,0.457c-0.117,0-0.295-0.012-0.533-0.035s-0.42-0.035-0.545-0.035
		c-0.133,0-0.332,0.008-0.598,0.023s-0.465,0.023-0.598,0.023c-0.164,0-0.246-0.184-0.246-0.551c0-0.359,0.014-0.896,0.041-1.611
		s0.041-1.252,0.041-1.611c0-1.977-0.008-3.078-0.023-3.305c-0.063-0.805-0.227-1.359-0.492-1.664
		c-0.305-0.328-0.848-0.492-1.629-0.492c-0.492,0-1.047,0.234-1.664,0.703c-0.641,0.492-0.973,0.977-0.996,1.453
		c-0.031,0.609-0.047,1.723-0.047,3.34c0,0.383,0.016,0.957,0.047,1.723s0.047,1.34,0.047,1.723c0,0.211-0.07,0.316-0.211,0.316
		s-0.346-0.012-0.615-0.035s-0.475-0.035-0.615-0.035c-0.125,0-0.309,0.008-0.551,0.023s-0.426,0.023-0.551,0.023
		c-0.156,0-0.234-0.113-0.234-0.34c0-0.375,0.012-0.939,0.035-1.693s0.035-1.318,0.035-1.693v-2.824
		c0-0.883-0.105-1.512-0.316-1.887c-0.297-0.531-0.863-0.797-1.699-0.797c-0.492,0-1.078,0.207-1.758,0.621
		c-0.75,0.453-1.125,0.91-1.125,1.371v3.422c0,0.391,0.004,0.973,0.012,1.746s0.012,1.352,0.012,1.734c0,0.227-0.09,0.34-0.27,0.34
		h-2.18c-0.156,0-0.234-0.105-0.234-0.316c0-0.633,0.004-1.584,0.012-2.854s0.012-2.221,0.012-2.854c0-1.43-0.152-2.855-0.457-4.277
		c-0.023-0.102-0.035-0.184-0.035-0.246c0-0.102,0.035-0.16,0.105-0.176c0.289-0.031,0.711-0.09,1.266-0.176
		c0.258-0.078,0.645-0.164,1.16-0.258l0.094-0.012c0.094,0,0.182,0.275,0.264,0.826s0.154,0.826,0.217,0.826l0.586-0.516
		c0.461-0.398,0.922-0.715,1.383-0.949c0.664-0.344,1.328-0.516,1.992-0.516c1.797,0,2.941,0.734,3.434,2.203
		c0.484-0.625,1.086-1.141,1.805-1.547c0.766-0.438,1.523-0.656,2.273-0.656c1.445,0,2.445,0.422,3,1.266
		c0.398,0.625,0.598,1.613,0.598,2.965c0,0.258-0.008,0.656-0.023,1.195s-0.023,0.938-0.023,1.195c0,0.492,0.012,1.232,0.035,2.221
		S219.055,167.574,219.055,168.066z"/>
	<path fill="#FFFFFF" d="M232.766,157.895c0,0.031-0.012,0.102-0.035,0.211c-0.305,1.789-0.457,3.332-0.457,4.629
		c0,0.078,0.098,1.832,0.293,5.262l0.012,0.164c0.008,0.227-0.096,0.34-0.311,0.34s-0.539,0.025-0.973,0.076
		s-0.756,0.076-0.967,0.076c-0.148,0-0.262-0.273-0.34-0.82s-0.152-0.82-0.223-0.82c-0.047,0-0.258,0.152-0.633,0.457
		c-0.461,0.375-0.891,0.66-1.289,0.855c-0.617,0.313-1.234,0.469-1.852,0.469c-1.516,0-2.793-0.605-3.832-1.816
		c-0.984-1.156-1.477-2.504-1.477-4.043c0-1.734,0.496-3.168,1.488-4.301c1.039-1.18,2.406-1.77,4.102-1.77
		c1.195,0,2.238,0.414,3.129,1.242c0.133,0.156,0.34,0.383,0.621,0.68c0.023,0.023,0.047,0.035,0.07,0.035
		c0.047,0,0.113-0.246,0.199-0.738s0.195-0.738,0.328-0.738c0.211,0,0.605,0.059,1.184,0.176
		C232.446,157.66,232.766,157.785,232.766,157.895z M229.778,162.793c0-0.961-0.285-1.785-0.855-2.473
		c-0.602-0.742-1.371-1.113-2.309-1.113s-1.719,0.367-2.344,1.102c-0.602,0.703-0.902,1.531-0.902,2.484
		c0,0.945,0.301,1.766,0.902,2.461c0.625,0.727,1.406,1.09,2.344,1.09c0.914,0,1.68-0.371,2.297-1.113
		C229.489,164.535,229.778,163.723,229.778,162.793z"/>
	<path fill="#FFFFFF" d="M245,157.578c0,0.938-0.008,2.346-0.023,4.225s-0.023,3.287-0.023,4.225c0,1.859-0.398,3.23-1.195,4.113
		c-0.836,0.938-2.172,1.406-4.008,1.406c-1.773,0-3.207-0.336-4.301-1.008c-0.172-0.109-0.258-0.203-0.258-0.281
		c0,0.086,0.117-0.492,0.352-1.734c0.023-0.133,0.078-0.199,0.164-0.199c0.039,0,0.09,0.02,0.152,0.059
		c1.172,0.672,2.348,1.008,3.527,1.008c0.773,0,1.414-0.172,1.922-0.516c0.586-0.391,0.879-0.957,0.879-1.699
		c0-0.164-0.016-0.531-0.047-1.102c-0.867,1.055-1.969,1.582-3.305,1.582c-1.445,0-2.633-0.52-3.563-1.559
		c-0.891-1-1.336-2.23-1.336-3.691c0-1.484,0.43-2.746,1.289-3.785c0.914-1.109,2.102-1.664,3.563-1.664
		c1.289,0,2.313,0.496,3.07,1.488c0.125,0.164,0.215,0.246,0.27,0.246c0.063,0,0.094-0.07,0.094-0.211
		c0-0.102-0.008-0.264-0.023-0.486s-0.023-0.389-0.023-0.498c0-0.469,0.047-0.703,0.141-0.703c0.078,0,0.5,0.072,1.266,0.217
		s1.184,0.232,1.254,0.264C244.946,157.313,245,157.414,245,157.578z M242.188,162.406c0-0.875-0.238-1.617-0.715-2.227
		c-0.523-0.664-1.211-0.996-2.063-0.996c-0.844,0-1.527,0.336-2.051,1.008c-0.477,0.609-0.715,1.348-0.715,2.215
		c0,0.852,0.242,1.586,0.727,2.203c0.523,0.672,1.203,1.008,2.039,1.008c0.828,0,1.508-0.336,2.039-1.008
		C241.942,163.992,242.188,163.258,242.188,162.406z"/>
	<path fill="#FFFFFF" d="M257.082,162.207c0,0.578-0.25,0.965-0.75,1.16c-0.336,0.125-2.754,0.355-7.254,0.691
		c0.102,0.688,0.48,1.273,1.137,1.758c0.625,0.461,1.297,0.691,2.016,0.691c1.234,0,2.367-0.398,3.398-1.195
		c0.125-0.102,0.25-0.203,0.375-0.305c0.063,0,0.104,0.008,0.123,0.023s0.166,0.287,0.439,0.814s0.41,0.811,0.41,0.85
		c0,0.047-0.063,0.137-0.188,0.27c-1.148,1.219-2.621,1.828-4.418,1.828c-1.813,0-3.258-0.541-4.336-1.623s-1.617-2.525-1.617-4.33
		c0-1.609,0.516-3.012,1.547-4.207c1.086-1.242,2.418-1.863,3.996-1.863c1.469,0,2.695,0.539,3.68,1.617
		C256.602,159.434,257.082,160.707,257.082,162.207z M254.293,161.492c0-0.648-0.256-1.223-0.768-1.723s-1.088-0.75-1.729-0.75
		c-0.719,0-1.357,0.289-1.916,0.867s-0.838,1.227-0.838,1.945c0,0.164,0.141,0.246,0.422,0.246c1.156,0,2.539-0.117,4.148-0.352
		C254.067,161.664,254.293,161.586,254.293,161.492z"/>
	<path fill="#FFFFFF" d="M274.953,168.09c0,0.289-0.082,0.434-0.246,0.434c-0.242,0-0.609-0.004-1.102-0.012
		s-0.859-0.012-1.102-0.012c-0.195,0-0.293-0.129-0.293-0.387c0-0.375,0.014-0.941,0.041-1.699s0.041-1.328,0.041-1.711
		c0-0.359-0.014-0.904-0.041-1.635s-0.041-1.279-0.041-1.646c0-1.406-0.664-2.109-1.992-2.109c-0.43,0-0.992,0.215-1.688,0.645
		c-0.742,0.461-1.113,0.883-1.113,1.266v6.961c0,0.227-0.082,0.34-0.246,0.34c-0.242,0-0.605-0.004-1.09-0.012
		s-0.848-0.012-1.09-0.012c-0.18,0-0.27-0.105-0.27-0.316v-5.66c0-0.922-0.051-2.883-0.152-5.883
		c-0.016-0.93-0.082-2.305-0.199-4.125c-0.016-0.094-0.023-0.156-0.023-0.188c0-0.133,0.047-0.215,0.141-0.246
		c0.133-0.047,0.574-0.07,1.324-0.07c0.164,0,0.41-0.029,0.738-0.088s0.566-0.088,0.715-0.088c0.102,0,0.152,0.074,0.152,0.223
		c0,0.734-0.029,1.838-0.088,3.311s-0.088,2.576-0.088,3.311c0,0.18,0.031,0.273,0.094,0.281c0.398-0.336,0.914-0.742,1.547-1.219
		c0.766-0.477,1.574-0.715,2.426-0.715c1.469,0,2.48,0.438,3.035,1.313c0.398,0.641,0.598,1.656,0.598,3.047
		c0,0.242-0.006,0.615-0.018,1.119s-0.018,0.877-0.018,1.119c0,0.5,0.008,1.246,0.023,2.238S274.953,167.598,274.953,168.09z"/>
	<path fill="#FFFFFF" d="M287.129,162.207c0,0.578-0.25,0.965-0.75,1.16c-0.336,0.125-2.754,0.355-7.254,0.691
		c0.102,0.688,0.48,1.273,1.137,1.758c0.625,0.461,1.297,0.691,2.016,0.691c1.234,0,2.367-0.398,3.398-1.195
		c0.125-0.102,0.25-0.203,0.375-0.305c0.063,0,0.104,0.008,0.123,0.023s0.166,0.287,0.439,0.814s0.41,0.811,0.41,0.85
		c0,0.047-0.063,0.137-0.188,0.27c-1.148,1.219-2.621,1.828-4.418,1.828c-1.813,0-3.258-0.541-4.336-1.623s-1.617-2.525-1.617-4.33
		c0-1.609,0.516-3.012,1.547-4.207c1.086-1.242,2.418-1.863,3.996-1.863c1.469,0,2.695,0.539,3.68,1.617
		C286.649,159.434,287.129,160.707,287.129,162.207z M284.34,161.492c0-0.648-0.256-1.223-0.768-1.723s-1.088-0.75-1.729-0.75
		c-0.719,0-1.357,0.289-1.916,0.867s-0.838,1.227-0.838,1.945c0,0.164,0.141,0.246,0.422,0.246c1.156,0,2.539-0.117,4.148-0.352
		C284.114,161.664,284.34,161.586,284.34,161.492z"/>
	<path fill="#FFFFFF" d="M295.473,157.496c0,0.859-0.059,1.641-0.176,2.344c-0.023,0.18-0.102,0.27-0.234,0.27
		c-0.164,0-0.412-0.018-0.744-0.053s-0.584-0.053-0.756-0.053c-0.984,0-1.613,0.277-1.887,0.832
		c-0.164,0.336-0.246,1.035-0.246,2.098v1.289c0,0.438,0.018,1.102,0.053,1.992s0.053,1.555,0.053,1.992
		c0,0.211-0.09,0.316-0.27,0.316c-0.242,0-0.609-0.004-1.102-0.012s-0.859-0.012-1.102-0.012c-0.18,0-0.27-0.098-0.27-0.293
		c0-0.633,0.01-1.586,0.029-2.859s0.029-2.23,0.029-2.871c0-1.93-0.18-3.48-0.539-4.652c-0.016-0.063-0.023-0.109-0.023-0.141
		c0-0.094,0.051-0.16,0.152-0.199c0.289-0.031,0.695-0.078,1.219-0.141c0.844-0.156,1.234-0.234,1.172-0.234
		c0.125,0,0.207,0.23,0.246,0.691s0.109,0.691,0.211,0.691c0.016,0,0.035-0.008,0.059-0.023c0.32-0.203,0.641-0.406,0.961-0.609
		c0.352-0.211,0.711-0.367,1.078-0.469c0.305-0.094,0.695-0.141,1.172-0.141C295.168,157.25,295.473,157.332,295.473,157.496z"/>
	<path fill="#FFFFFF" d="M306.688,162.207c0,0.578-0.25,0.965-0.75,1.16c-0.336,0.125-2.754,0.355-7.254,0.691
		c0.102,0.688,0.48,1.273,1.137,1.758c0.625,0.461,1.297,0.691,2.016,0.691c1.234,0,2.367-0.398,3.398-1.195
		c0.125-0.102,0.25-0.203,0.375-0.305c0.063,0,0.104,0.008,0.123,0.023s0.166,0.287,0.439,0.814s0.41,0.811,0.41,0.85
		c0,0.047-0.063,0.137-0.188,0.27c-1.148,1.219-2.621,1.828-4.418,1.828c-1.813,0-3.258-0.541-4.336-1.623s-1.617-2.525-1.617-4.33
		c0-1.609,0.516-3.012,1.547-4.207c1.086-1.242,2.418-1.863,3.996-1.863c1.469,0,2.695,0.539,3.68,1.617
		C306.207,159.434,306.688,160.707,306.688,162.207z M303.899,161.492c0-0.648-0.256-1.223-0.768-1.723s-1.088-0.75-1.729-0.75
		c-0.719,0-1.357,0.289-1.916,0.867s-0.838,1.227-0.838,1.945c0,0.164,0.141,0.246,0.422,0.246c1.156,0,2.539-0.117,4.148-0.352
		C303.672,161.664,303.899,161.586,303.899,161.492z"/>
	<path fill="#FFFFFF" d="M311.574,165.711c0,0.797-0.137,1.504-0.41,2.121c-0.172,0.391-0.641,1.008-1.406,1.852
		c-0.82,0.922-1.383,1.383-1.688,1.383c-0.07,0-0.258-0.18-0.563-0.539s-0.457-0.586-0.457-0.68c0,0.016,0.205-0.256,0.615-0.814
		s0.631-1.025,0.662-1.4c0,0.055,0-0.355,0-1.23c0-0.305,0.426-0.566,1.277-0.785c0.68-0.172,1.25-0.258,1.711-0.258
		C311.489,165.359,311.574,165.477,311.574,165.711z"/>
	<path fill="#FFFFFF" d="M204.002,189.073c0,2.32-0.742,4.316-2.227,5.988c-1.547,1.734-3.469,2.602-5.766,2.602
		c-2.305,0-4.227-0.863-5.766-2.59c-1.484-1.664-2.227-3.664-2.227-6c0-2.313,0.75-4.309,2.25-5.988
		c1.547-1.742,3.461-2.613,5.742-2.613c2.289,0,4.207,0.871,5.754,2.613C203.256,184.757,204.002,186.753,204.002,189.073z
		 M201.178,189.038c0-1.531-0.477-2.863-1.43-3.996c-1-1.203-2.254-1.805-3.762-1.805c-1.492,0-2.734,0.609-3.727,1.828
		c-0.938,1.141-1.406,2.477-1.406,4.008c0,1.523,0.469,2.855,1.406,3.996c0.992,1.219,2.234,1.828,3.727,1.828
		c1.516,0,2.773-0.609,3.773-1.828C200.705,191.929,201.178,190.585,201.178,189.038z"/>
	<path fill="#FFFFFF" d="M212.604,186.296c0,0.859-0.059,1.641-0.176,2.344c-0.023,0.18-0.102,0.27-0.234,0.27
		c-0.164,0-0.412-0.018-0.744-0.053s-0.584-0.053-0.756-0.053c-0.984,0-1.613,0.277-1.887,0.832
		c-0.164,0.336-0.246,1.035-0.246,2.098v1.289c0,0.438,0.018,1.102,0.053,1.992s0.053,1.555,0.053,1.992
		c0,0.211-0.09,0.316-0.27,0.316c-0.242,0-0.609-0.004-1.102-0.012s-0.859-0.012-1.102-0.012c-0.18,0-0.27-0.098-0.27-0.293
		c0-0.633,0.01-1.586,0.029-2.859s0.029-2.23,0.029-2.871c0-1.93-0.18-3.48-0.539-4.652c-0.016-0.063-0.023-0.109-0.023-0.141
		c0-0.094,0.051-0.16,0.152-0.199c0.289-0.031,0.695-0.078,1.219-0.141c0.844-0.156,1.234-0.234,1.172-0.234
		c0.125,0,0.207,0.23,0.246,0.691s0.109,0.691,0.211,0.691c0.016,0,0.035-0.008,0.059-0.023c0.32-0.203,0.641-0.406,0.961-0.609
		c0.352-0.211,0.711-0.367,1.078-0.469c0.305-0.094,0.695-0.141,1.172-0.141C212.299,186.05,212.604,186.132,212.604,186.296z"/>
	<path fill="#FFFFFF" d="M97.097,223.393c0,0.094-0.074,0.227-0.223,0.398c-1.523,1.766-3.41,2.648-5.66,2.648
		c-2.344,0-4.219-0.855-5.625-2.566c-1.313-1.594-1.969-3.586-1.969-5.977s0.668-4.391,2.004-6c1.422-1.734,3.301-2.602,5.637-2.602
		c2.367,0,4.199,0.801,5.496,2.402c0.125,0.164,0.188,0.301,0.188,0.41c0,0.133-0.207,0.525-0.621,1.178s-0.664,0.979-0.75,0.979
		c-0.102,0-0.34-0.191-0.715-0.574c-0.461-0.469-0.895-0.82-1.301-1.055c-0.672-0.383-1.414-0.574-2.227-0.574
		c-1.547,0-2.75,0.59-3.609,1.77c-0.766,1.055-1.148,2.383-1.148,3.984s0.379,2.941,1.137,4.02c0.859,1.211,2.059,1.816,3.598,1.816
		c0.766,0,1.504-0.191,2.215-0.574c0.469-0.25,0.945-0.605,1.43-1.066c0.406-0.383,0.629-0.574,0.668-0.574
		c0.047,0,0.305,0.311,0.773,0.932S97.097,223.33,97.097,223.393z"/>
	<path fill="#FFFFFF" d="M101.34,209.846l-0.012,0.152c-0.172,2.906-0.258,5.402-0.258,7.488c0,0.93,0.016,2.322,0.047,4.178
		s0.047,3.244,0.047,4.166c0,0.18-0.063,0.27-0.188,0.27h-2.238c-0.141,0-0.211-0.09-0.211-0.27c0-0.922,0.008-2.311,0.023-4.166
		s0.023-3.248,0.023-4.178c0-0.844-0.041-2.111-0.123-3.803s-0.123-2.955-0.123-3.791c0-0.156,0.082-0.234,0.246-0.234
		c0.141,0,0.352,0.012,0.633,0.035s0.492,0.035,0.633,0.035c0.148,0,0.367-0.012,0.656-0.035s0.504-0.035,0.645-0.035
		S101.347,209.721,101.34,209.846z"/>
	<path fill="#FFFFFF" d="M106.707,212.084c0,0.961-0.535,1.441-1.605,1.441c-1.086,0-1.629-0.48-1.629-1.441
		c0-0.43,0.168-0.785,0.504-1.066c0.313-0.266,0.688-0.398,1.125-0.398s0.814,0.137,1.131,0.41S106.707,211.654,106.707,212.084z
		 M106.625,215.26c0,0.602-0.037,1.51-0.111,2.725s-0.111,2.127-0.111,2.736c0,0.57,0.012,1.424,0.035,2.561
		s0.035,1.986,0.035,2.549c0,0.164-0.07,0.246-0.211,0.246h-2.285c-0.164,0-0.246-0.16-0.246-0.48c0-0.539,0.014-1.35,0.041-2.432
		s0.041-1.896,0.041-2.443c0-0.609-0.045-1.523-0.135-2.742s-0.135-2.133-0.135-2.742c0-0.133,0.082-0.199,0.246-0.199
		c0.141,0,0.357,0.02,0.65,0.059s0.514,0.059,0.662,0.059s0.369-0.02,0.662-0.059s0.514-0.059,0.662-0.059
		C106.558,215.037,106.625,215.111,106.625,215.26z"/>
	<path fill="#FFFFFF" d="M117.125,215.471c0,0.172-0.09,0.555-0.27,1.148s-0.305,0.891-0.375,0.891
		c-0.352-0.156-0.705-0.313-1.061-0.469s-0.744-0.234-1.166-0.234c-0.961,0-1.762,0.355-2.402,1.066s-0.961,1.551-0.961,2.52
		c0,0.953,0.32,1.777,0.961,2.473c0.656,0.719,1.457,1.078,2.402,1.078c0.523,0,1.039-0.129,1.547-0.387s0.73-0.387,0.668-0.387
		c0.102,0,0.215,0.328,0.34,0.984c0.117,0.594,0.176,1.004,0.176,1.23c0,0.242-0.457,0.48-1.371,0.715
		c-0.766,0.195-1.332,0.293-1.699,0.293c-1.609,0-2.969-0.602-4.078-1.805c-1.086-1.172-1.629-2.57-1.629-4.195
		c0-1.656,0.531-3.063,1.594-4.219c1.094-1.188,2.457-1.781,4.09-1.781c1.094,0,2.094,0.277,3,0.832
		C117.047,215.318,117.125,215.4,117.125,215.471z"/>
	<path fill="#FFFFFF" d="M130.109,218.061c0,2.031-0.941,3.391-2.824,4.078c0,0.398,0.781,1.641,2.344,3.727
		c0,0.117-0.391,0.195-1.172,0.234c-0.516,0.023-0.902,0.035-1.16,0.035c-0.555,0-0.902-0.117-1.043-0.352
		c-0.367-0.625-0.945-1.535-1.734-2.73c-0.094-0.141-0.941-0.199-2.543-0.176l-0.457,0.012v2.895c0,0.242-0.086,0.363-0.258,0.363
		c-0.25,0-0.619-0.004-1.107-0.012s-0.857-0.012-1.107-0.012c-0.172,0-0.258-0.152-0.258-0.457v-7.289
		c0-0.953-0.037-2.379-0.111-4.277s-0.111-3.324-0.111-4.277c0-0.141,0.074-0.219,0.223-0.234c0.258-0.008,0.648-0.023,1.172-0.047
		c0.109-0.008,0.34-0.035,0.691-0.082c0.281-0.039,0.508-0.059,0.68-0.059c0.109,0,0.164,0.094,0.164,0.281
		c0,0.422-0.02,1.051-0.059,1.887s-0.059,1.465-0.059,1.887v3.023c0,0.164,0.035,0.246,0.105,0.246
		c0.188-0.156,0.469-0.387,0.844-0.691c1.313-1.016,2.563-1.523,3.75-1.523c1.156,0,2.102,0.297,2.836,0.891
		C129.711,216.049,130.109,216.936,130.109,218.061z M127.285,218.611c0-1.117-0.723-1.676-2.168-1.676
		c-1.078,0-2.293,0.719-3.645,2.156v1.746c0.633,0.117,1.398,0.176,2.297,0.176c0.906,0,1.68-0.172,2.32-0.516
		C126.886,220.068,127.285,219.439,127.285,218.611z"/>
	<path fill="#FFFFFF" d="M144.242,223.943c0,0.172-0.016,0.406-0.047,0.703c-0.039,0.367-0.063,0.605-0.07,0.715
		c-0.008,0.141-0.02,0.227-0.035,0.258c-0.031,0.055-0.105,0.109-0.223,0.164c-0.641,0.305-1.648,0.457-3.023,0.457
		c-1.828,0-2.742-0.828-2.742-2.484c0-0.664,0.016-1.662,0.047-2.994s0.047-2.33,0.047-2.994c0-0.32-0.16-0.492-0.48-0.516
		c-0.289,0-0.574-0.004-0.855-0.012c-0.164-0.039-0.246-0.359-0.246-0.961c0-0.227,0.016-0.465,0.047-0.715
		c0.023-0.188,0.148-0.301,0.375-0.34c0.195,0,0.387-0.004,0.574-0.012c0.359-0.016,0.539-0.176,0.539-0.48
		c0-0.313-0.01-0.789-0.029-1.43s-0.029-1.121-0.029-1.441c0-0.57,0.109-0.855,0.328-0.855c0.07,0,0.805,0.121,2.203,0.363
		c0.18,0.023,0.27,0.109,0.27,0.258c0,0.344-0.025,0.859-0.076,1.547s-0.076,1.203-0.076,1.547c0,0.227,0.105,0.34,0.316,0.34h2.813
		c0.133,0,0.199,0.047,0.199,0.141s-0.014,0.244-0.041,0.451s-0.041,0.361-0.041,0.463c0,0.117,0.004,0.297,0.012,0.539
		s0.012,0.422,0.012,0.539c0,0.148-0.109,0.223-0.328,0.223c-0.313,0-0.785-0.021-1.418-0.064s-1.105-0.064-1.418-0.064
		c-0.063,0-0.109,0.223-0.141,0.668c-0.039,0.555-0.059,1.332-0.059,2.332v1.746c0,0.672,0.063,1.141,0.188,1.406
		c0.188,0.406,0.574,0.609,1.16,0.609c0.242,0,0.598-0.053,1.066-0.158s0.816-0.158,1.043-0.158
		C144.195,223.732,144.242,223.803,144.242,223.943z"/>
	<path fill="#FFFFFF" d="M156.535,220.393c0,1.633-0.535,3.027-1.605,4.184c-1.094,1.195-2.449,1.793-4.066,1.793
		c-1.625,0-2.984-0.594-4.078-1.781c-1.07-1.148-1.605-2.539-1.605-4.172s0.535-3.023,1.605-4.172
		c1.102-1.172,2.461-1.758,4.078-1.758c1.609,0,2.961,0.586,4.055,1.758C155.996,217.385,156.535,218.768,156.535,220.393z
		 M154.062,220.416c0-0.953-0.293-1.766-0.879-2.438c-0.609-0.711-1.383-1.066-2.32-1.066s-1.715,0.352-2.332,1.055
		c-0.586,0.68-0.879,1.496-0.879,2.449c0,0.938,0.297,1.75,0.891,2.438c0.625,0.727,1.398,1.09,2.32,1.09
		c0.93,0,1.703-0.363,2.32-1.09C153.769,222.166,154.062,221.354,154.062,220.416z"/>
	<path fill="#FFFFFF" d="M169.672,222.49c0,1.164-0.465,2.098-1.395,2.801c-0.844,0.641-1.871,0.961-3.082,0.961
		c-0.469,0-0.734-0.012-0.797-0.035c-0.133-0.063-0.199-0.254-0.199-0.574c0-0.172-0.021-0.43-0.064-0.773s-0.064-0.598-0.064-0.762
		c0-0.102,0.07-0.168,0.211-0.199c0.102-0.023,0.246-0.023,0.434,0c0.242,0.023,0.359,0.035,0.352,0.035
		c1.477,0,2.215-0.453,2.215-1.359c0-0.43-0.324-0.824-0.973-1.184c-1.055-0.578-1.66-0.934-1.816-1.066
		c-0.648-0.555-0.973-1.281-0.973-2.18c0-1.172,0.441-2.086,1.324-2.742c0.797-0.586,1.805-0.879,3.023-0.879
		c0.109,0,0.189,0.051,0.24,0.152s0.148,0.418,0.293,0.949s0.217,0.852,0.217,0.961c0,0.086-0.074,0.141-0.223,0.164
		c-0.5,0.07-1.004,0.137-1.512,0.199c-0.602,0.164-0.902,0.492-0.902,0.984c0,0.352,0.316,0.707,0.949,1.066
		c0.938,0.523,1.531,0.902,1.781,1.137C169.351,220.756,169.672,221.537,169.672,222.49z"/>
	<path fill="#FFFFFF" d="M181.285,219.807c0,0.578-0.25,0.965-0.75,1.16c-0.336,0.125-2.754,0.355-7.254,0.691
		c0.102,0.688,0.48,1.273,1.137,1.758c0.625,0.461,1.297,0.691,2.016,0.691c1.234,0,2.367-0.398,3.398-1.195
		c0.125-0.102,0.25-0.203,0.375-0.305c0.063,0,0.104,0.008,0.123,0.023s0.166,0.287,0.439,0.814s0.41,0.811,0.41,0.85
		c0,0.047-0.063,0.137-0.188,0.27c-1.148,1.219-2.621,1.828-4.418,1.828c-1.813,0-3.258-0.541-4.336-1.623s-1.617-2.525-1.617-4.33
		c0-1.609,0.516-3.012,1.547-4.207c1.086-1.242,2.418-1.863,3.996-1.863c1.469,0,2.695,0.539,3.68,1.617
		C180.804,217.033,181.285,218.307,181.285,219.807z M178.496,219.092c0-0.648-0.256-1.223-0.768-1.723s-1.088-0.75-1.729-0.75
		c-0.719,0-1.357,0.289-1.916,0.867s-0.838,1.227-0.838,1.945c0,0.164,0.141,0.246,0.422,0.246c1.156,0,2.539-0.117,4.148-0.352
		C178.269,219.264,178.496,219.186,178.496,219.092z"/>
	<path fill="#FFFFFF" d="M185.89,209.846l-0.012,0.152c-0.172,2.906-0.258,5.402-0.258,7.488c0,0.93,0.016,2.322,0.047,4.178
		s0.047,3.244,0.047,4.166c0,0.18-0.063,0.27-0.188,0.27h-2.238c-0.141,0-0.211-0.09-0.211-0.27c0-0.922,0.008-2.311,0.023-4.166
		s0.023-3.248,0.023-4.178c0-0.844-0.041-2.111-0.123-3.803s-0.123-2.955-0.123-3.791c0-0.156,0.082-0.234,0.246-0.234
		c0.141,0,0.352,0.012,0.633,0.035s0.492,0.035,0.633,0.035c0.148,0,0.367-0.012,0.656-0.035s0.504-0.035,0.645-0.035
		S185.898,209.721,185.89,209.846z"/>
	<path fill="#FFFFFF" d="M198.136,219.807c0,0.578-0.25,0.965-0.75,1.16c-0.336,0.125-2.754,0.355-7.254,0.691
		c0.102,0.688,0.48,1.273,1.137,1.758c0.625,0.461,1.297,0.691,2.016,0.691c1.234,0,2.367-0.398,3.398-1.195
		c0.125-0.102,0.25-0.203,0.375-0.305c0.063,0,0.104,0.008,0.123,0.023s0.166,0.287,0.439,0.814s0.41,0.811,0.41,0.85
		c0,0.047-0.063,0.137-0.188,0.27c-1.148,1.219-2.621,1.828-4.418,1.828c-1.813,0-3.258-0.541-4.336-1.623s-1.617-2.525-1.617-4.33
		c0-1.609,0.516-3.012,1.547-4.207c1.086-1.242,2.418-1.863,3.996-1.863c1.469,0,2.695,0.539,3.68,1.617
		C197.656,217.033,198.136,218.307,198.136,219.807z M195.347,219.092c0-0.648-0.256-1.223-0.768-1.723s-1.088-0.75-1.729-0.75
		c-0.719,0-1.357,0.289-1.916,0.867s-0.838,1.227-0.838,1.945c0,0.164,0.141,0.246,0.422,0.246c1.156,0,2.539-0.117,4.148-0.352
		C195.121,219.264,195.347,219.186,195.347,219.092z"/>
	<path fill="#FFFFFF" d="M207.957,215.471c0,0.172-0.09,0.555-0.27,1.148s-0.305,0.891-0.375,0.891
		c-0.352-0.156-0.705-0.313-1.061-0.469s-0.744-0.234-1.166-0.234c-0.961,0-1.762,0.355-2.402,1.066s-0.961,1.551-0.961,2.52
		c0,0.953,0.32,1.777,0.961,2.473c0.656,0.719,1.457,1.078,2.402,1.078c0.523,0,1.039-0.129,1.547-0.387s0.73-0.387,0.668-0.387
		c0.102,0,0.215,0.328,0.34,0.984c0.117,0.594,0.176,1.004,0.176,1.23c0,0.242-0.457,0.48-1.371,0.715
		c-0.766,0.195-1.332,0.293-1.699,0.293c-1.609,0-2.969-0.602-4.078-1.805c-1.086-1.172-1.629-2.57-1.629-4.195
		c0-1.656,0.531-3.063,1.594-4.219c1.094-1.188,2.457-1.781,4.09-1.781c1.094,0,2.094,0.277,3,0.832
		C207.879,215.318,207.957,215.4,207.957,215.471z"/>
	<path fill="#FFFFFF" d="M215.949,223.943c0,0.172-0.016,0.406-0.047,0.703c-0.039,0.367-0.063,0.605-0.07,0.715
		c-0.008,0.141-0.02,0.227-0.035,0.258c-0.031,0.055-0.105,0.109-0.223,0.164c-0.641,0.305-1.648,0.457-3.023,0.457
		c-1.828,0-2.742-0.828-2.742-2.484c0-0.664,0.016-1.662,0.047-2.994s0.047-2.33,0.047-2.994c0-0.32-0.16-0.492-0.48-0.516
		c-0.289,0-0.574-0.004-0.855-0.012c-0.164-0.039-0.246-0.359-0.246-0.961c0-0.227,0.016-0.465,0.047-0.715
		c0.023-0.188,0.148-0.301,0.375-0.34c0.195,0,0.387-0.004,0.574-0.012c0.359-0.016,0.539-0.176,0.539-0.48
		c0-0.313-0.01-0.789-0.029-1.43s-0.029-1.121-0.029-1.441c0-0.57,0.109-0.855,0.328-0.855c0.07,0,0.805,0.121,2.203,0.363
		c0.18,0.023,0.27,0.109,0.27,0.258c0,0.344-0.025,0.859-0.076,1.547s-0.076,1.203-0.076,1.547c0,0.227,0.105,0.34,0.316,0.34h2.813
		c0.133,0,0.199,0.047,0.199,0.141s-0.014,0.244-0.041,0.451s-0.041,0.361-0.041,0.463c0,0.117,0.004,0.297,0.012,0.539
		s0.012,0.422,0.012,0.539c0,0.148-0.109,0.223-0.328,0.223c-0.313,0-0.785-0.021-1.418-0.064s-1.105-0.064-1.418-0.064
		c-0.063,0-0.109,0.223-0.141,0.668c-0.039,0.555-0.059,1.332-0.059,2.332v1.746c0,0.672,0.063,1.141,0.188,1.406
		c0.188,0.406,0.574,0.609,1.16,0.609c0.242,0,0.598-0.053,1.066-0.158s0.816-0.158,1.043-0.158
		C215.903,223.732,215.949,223.803,215.949,223.943z"/>
	<path fill="#FFFFFF" d="M235.016,215.494c0,0.031-0.012,0.102-0.035,0.211c-0.305,1.789-0.457,3.332-0.457,4.629
		c0,0.078,0.098,1.832,0.293,5.262l0.012,0.164c0.008,0.227-0.096,0.34-0.311,0.34s-0.539,0.025-0.973,0.076
		s-0.756,0.076-0.967,0.076c-0.148,0-0.262-0.273-0.34-0.82s-0.152-0.82-0.223-0.82c-0.047,0-0.258,0.152-0.633,0.457
		c-0.461,0.375-0.891,0.66-1.289,0.855c-0.617,0.313-1.234,0.469-1.852,0.469c-1.516,0-2.793-0.605-3.832-1.816
		c-0.984-1.156-1.477-2.504-1.477-4.043c0-1.734,0.496-3.168,1.488-4.301c1.039-1.18,2.406-1.77,4.102-1.77
		c1.195,0,2.238,0.414,3.129,1.242c0.133,0.156,0.34,0.383,0.621,0.68c0.023,0.023,0.047,0.035,0.07,0.035
		c0.047,0,0.113-0.246,0.199-0.738s0.195-0.738,0.328-0.738c0.211,0,0.605,0.059,1.184,0.176
		C234.696,215.26,235.016,215.385,235.016,215.494z M232.028,220.393c0-0.961-0.285-1.785-0.855-2.473
		c-0.602-0.742-1.371-1.113-2.309-1.113s-1.719,0.367-2.344,1.102c-0.602,0.703-0.902,1.531-0.902,2.484
		c0,0.945,0.301,1.766,0.902,2.461c0.625,0.727,1.406,1.09,2.344,1.09c0.914,0,1.68-0.371,2.297-1.113
		C231.739,222.135,232.028,221.322,232.028,220.393z"/>
	<path fill="#FFFFFF" d="M247.25,225.865c0,0.172-0.078,0.258-0.234,0.258c-0.258,0-0.643-0.004-1.154-0.012
		s-0.896-0.012-1.154-0.012c-0.141,0-0.211-0.113-0.211-0.34c0-0.383,0.012-0.965,0.035-1.746s0.035-1.367,0.035-1.758
		c0-0.313-0.004-0.779-0.012-1.4s-0.012-1.088-0.012-1.4c0-0.891-0.129-1.52-0.387-1.887c-0.313-0.438-0.891-0.656-1.734-0.656
		c-0.391,0-0.934,0.219-1.629,0.656c-0.734,0.461-1.102,0.871-1.102,1.23v7.031c0,0.195-0.074,0.293-0.223,0.293
		c-0.25,0-0.625-0.004-1.125-0.012s-0.875-0.012-1.125-0.012c-0.164,0-0.246-0.09-0.246-0.27c0-0.617,0.01-1.543,0.029-2.777
		s0.029-2.164,0.029-2.789c0-1.664-0.176-3.199-0.527-4.605c-0.023-0.07-0.035-0.121-0.035-0.152c0-0.078,0.051-0.133,0.152-0.164
		c0.055-0.008,0.502-0.08,1.342-0.217s1.279-0.205,1.318-0.205c0.047,0,0.078,0.063,0.094,0.188c0.039,0.484,0.129,0.973,0.27,1.465
		c0.406-0.32,0.941-0.719,1.605-1.195c0.82-0.5,1.613-0.75,2.379-0.75c1.469,0,2.473,0.426,3.012,1.277
		c0.398,0.625,0.598,1.637,0.598,3.035c0,0.242-0.006,0.613-0.018,1.113s-0.018,0.875-0.018,1.125c0,0.523,0.008,1.305,0.023,2.344
		S247.25,225.342,247.25,225.865z"/>
	<path fill="#FFFFFF" d="M258.524,212.084c0,0.961-0.535,1.441-1.605,1.441c-1.086,0-1.629-0.48-1.629-1.441
		c0-0.43,0.168-0.785,0.504-1.066c0.313-0.266,0.688-0.398,1.125-0.398s0.814,0.137,1.131,0.41S258.524,211.654,258.524,212.084z
		 M258.442,215.26c0,0.602-0.037,1.51-0.111,2.725s-0.111,2.127-0.111,2.736c0,0.57,0.012,1.424,0.035,2.561
		s0.035,1.986,0.035,2.549c0,0.164-0.07,0.246-0.211,0.246h-2.285c-0.164,0-0.246-0.16-0.246-0.48c0-0.539,0.014-1.35,0.041-2.432
		s0.041-1.896,0.041-2.443c0-0.609-0.045-1.523-0.135-2.742s-0.135-2.133-0.135-2.742c0-0.133,0.082-0.199,0.246-0.199
		c0.141,0,0.357,0.02,0.65,0.059s0.514,0.059,0.662,0.059s0.369-0.02,0.662-0.059s0.514-0.059,0.662-0.059
		C258.375,215.037,258.442,215.111,258.442,215.26z"/>
	<path fill="#FFFFFF" d="M278.574,225.666c0,0.305-0.09,0.457-0.27,0.457c-0.117,0-0.295-0.012-0.533-0.035s-0.42-0.035-0.545-0.035
		c-0.133,0-0.332,0.008-0.598,0.023s-0.465,0.023-0.598,0.023c-0.164,0-0.246-0.184-0.246-0.551c0-0.359,0.014-0.896,0.041-1.611
		s0.041-1.252,0.041-1.611c0-1.977-0.008-3.078-0.023-3.305c-0.063-0.805-0.227-1.359-0.492-1.664
		c-0.305-0.328-0.848-0.492-1.629-0.492c-0.492,0-1.047,0.234-1.664,0.703c-0.641,0.492-0.973,0.977-0.996,1.453
		c-0.031,0.609-0.047,1.723-0.047,3.34c0,0.383,0.016,0.957,0.047,1.723s0.047,1.34,0.047,1.723c0,0.211-0.07,0.316-0.211,0.316
		s-0.346-0.012-0.615-0.035s-0.475-0.035-0.615-0.035c-0.125,0-0.309,0.008-0.551,0.023s-0.426,0.023-0.551,0.023
		c-0.156,0-0.234-0.113-0.234-0.34c0-0.375,0.012-0.939,0.035-1.693s0.035-1.318,0.035-1.693v-2.824
		c0-0.883-0.105-1.512-0.316-1.887c-0.297-0.531-0.863-0.797-1.699-0.797c-0.492,0-1.078,0.207-1.758,0.621
		c-0.75,0.453-1.125,0.91-1.125,1.371v3.422c0,0.391,0.004,0.973,0.012,1.746s0.012,1.352,0.012,1.734c0,0.227-0.09,0.34-0.27,0.34
		h-2.18c-0.156,0-0.234-0.105-0.234-0.316c0-0.633,0.004-1.584,0.012-2.854s0.012-2.221,0.012-2.854c0-1.43-0.152-2.855-0.457-4.277
		c-0.023-0.102-0.035-0.184-0.035-0.246c0-0.102,0.035-0.16,0.105-0.176c0.289-0.031,0.711-0.09,1.266-0.176
		c0.258-0.078,0.645-0.164,1.16-0.258l0.094-0.012c0.094,0,0.182,0.275,0.264,0.826s0.154,0.826,0.217,0.826l0.586-0.516
		c0.461-0.398,0.922-0.715,1.383-0.949c0.664-0.344,1.328-0.516,1.992-0.516c1.797,0,2.941,0.734,3.434,2.203
		c0.484-0.625,1.086-1.141,1.805-1.547c0.766-0.438,1.523-0.656,2.273-0.656c1.445,0,2.445,0.422,3,1.266
		c0.398,0.625,0.598,1.613,0.598,2.965c0,0.258-0.008,0.656-0.023,1.195s-0.023,0.938-0.023,1.195c0,0.492,0.012,1.232,0.035,2.221
		S278.574,225.174,278.574,225.666z"/>
	<path fill="#FFFFFF" d="M292.285,215.494c0,0.031-0.012,0.102-0.035,0.211c-0.305,1.789-0.457,3.332-0.457,4.629
		c0,0.078,0.098,1.832,0.293,5.262l0.012,0.164c0.008,0.227-0.096,0.34-0.311,0.34s-0.539,0.025-0.973,0.076
		s-0.756,0.076-0.967,0.076c-0.148,0-0.262-0.273-0.34-0.82s-0.152-0.82-0.223-0.82c-0.047,0-0.258,0.152-0.633,0.457
		c-0.461,0.375-0.891,0.66-1.289,0.855c-0.617,0.313-1.234,0.469-1.852,0.469c-1.516,0-2.793-0.605-3.832-1.816
		c-0.984-1.156-1.477-2.504-1.477-4.043c0-1.734,0.496-3.168,1.488-4.301c1.039-1.18,2.406-1.77,4.102-1.77
		c1.195,0,2.238,0.414,3.129,1.242c0.133,0.156,0.34,0.383,0.621,0.68c0.023,0.023,0.047,0.035,0.07,0.035
		c0.047,0,0.113-0.246,0.199-0.738s0.195-0.738,0.328-0.738c0.211,0,0.605,0.059,1.184,0.176
		C291.965,215.26,292.285,215.385,292.285,215.494z M289.297,220.393c0-0.961-0.285-1.785-0.855-2.473
		c-0.602-0.742-1.371-1.113-2.309-1.113s-1.719,0.367-2.344,1.102c-0.602,0.703-0.902,1.531-0.902,2.484
		c0,0.945,0.301,1.766,0.902,2.461c0.625,0.727,1.406,1.09,2.344,1.09c0.914,0,1.68-0.371,2.297-1.113
		C289.008,222.135,289.297,221.322,289.297,220.393z"/>
	<path fill="#FFFFFF" d="M304.52,215.178c0,0.938-0.008,2.346-0.023,4.225s-0.023,3.287-0.023,4.225c0,1.859-0.398,3.23-1.195,4.113
		c-0.836,0.938-2.172,1.406-4.008,1.406c-1.773,0-3.207-0.336-4.301-1.008c-0.172-0.109-0.258-0.203-0.258-0.281
		c0,0.086,0.117-0.492,0.352-1.734c0.023-0.133,0.078-0.199,0.164-0.199c0.039,0,0.09,0.02,0.152,0.059
		c1.172,0.672,2.348,1.008,3.527,1.008c0.773,0,1.414-0.172,1.922-0.516c0.586-0.391,0.879-0.957,0.879-1.699
		c0-0.164-0.016-0.531-0.047-1.102c-0.867,1.055-1.969,1.582-3.305,1.582c-1.445,0-2.633-0.52-3.563-1.559
		c-0.891-1-1.336-2.23-1.336-3.691c0-1.484,0.43-2.746,1.289-3.785c0.914-1.109,2.102-1.664,3.563-1.664
		c1.289,0,2.313,0.496,3.07,1.488c0.125,0.164,0.215,0.246,0.27,0.246c0.063,0,0.094-0.07,0.094-0.211
		c0-0.102-0.008-0.264-0.023-0.486s-0.023-0.389-0.023-0.498c0-0.469,0.047-0.703,0.141-0.703c0.078,0,0.5,0.072,1.266,0.217
		s1.184,0.232,1.254,0.264C304.465,214.912,304.52,215.014,304.52,215.178z M301.707,220.006c0-0.875-0.238-1.617-0.715-2.227
		c-0.523-0.664-1.211-0.996-2.063-0.996c-0.844,0-1.527,0.336-2.051,1.008c-0.477,0.609-0.715,1.348-0.715,2.215
		c0,0.852,0.242,1.586,0.727,2.203c0.523,0.672,1.203,1.008,2.039,1.008c0.828,0,1.508-0.336,2.039-1.008
		C301.461,221.592,301.707,220.857,301.707,220.006z"/>
	<path fill="#FFFFFF" d="M316.602,219.807c0,0.578-0.25,0.965-0.75,1.16c-0.336,0.125-2.754,0.355-7.254,0.691
		c0.102,0.688,0.48,1.273,1.137,1.758c0.625,0.461,1.297,0.691,2.016,0.691c1.234,0,2.367-0.398,3.398-1.195
		c0.125-0.102,0.25-0.203,0.375-0.305c0.063,0,0.104,0.008,0.123,0.023s0.166,0.287,0.439,0.814s0.41,0.811,0.41,0.85
		c0,0.047-0.063,0.137-0.188,0.27c-1.148,1.219-2.621,1.828-4.418,1.828c-1.813,0-3.258-0.541-4.336-1.623s-1.617-2.525-1.617-4.33
		c0-1.609,0.516-3.012,1.547-4.207c1.086-1.242,2.418-1.863,3.996-1.863c1.469,0,2.695,0.539,3.68,1.617
		C316.121,217.033,316.602,218.307,316.602,219.807z M313.813,219.092c0-0.648-0.256-1.223-0.768-1.723s-1.088-0.75-1.729-0.75
		c-0.719,0-1.357,0.289-1.916,0.867s-0.838,1.227-0.838,1.945c0,0.164,0.141,0.246,0.422,0.246c1.156,0,2.539-0.117,4.148-0.352
		C313.586,219.264,313.813,219.186,313.813,219.092z"/>
</g>
</svg>
