<?xml version="1.0" encoding="utf-8"?>
<!-- Generator: Adobe Illustrator 24.2.0, SVG Export Plug-In . SVG Version: 6.00 Build 0)  -->
<svg version="1.1" id="Capa_1" xmlns="http://www.w3.org/2000/svg" xmlns:xlink="http://www.w3.org/1999/xlink" x="0px" y="0px"
	 width="50" height="50" viewBox="0 0 30 30" style="enable-background:new 0 0 30 30;" xml:space="preserve">
<style type="text/css">
	.st0{fill:#FFFFFF;}
</style>
<path fill-opacity="0.5" class="st0" d="M27.1,21.9c-1-0.1-1.9,0.4-2.5,1.2c0-0.1,0.1-0.2,0.1-0.4c0-0.1,0.1-0.2,0.2-0.2c1-0.5,1.6-1.5,1.5-2.6
	c-0.1-1.4-1.2-2.5-2.6-2.6c-0.8,0-1.5,0.2-2,0.8c-0.5,0.5-0.8,1.2-0.8,2c0,1,0.6,2,1.5,2.5c0.1,0,0.1,0.1,0.2,0.2
	c0,0.1,0.1,0.2,0.1,0.4c-0.5-0.8-1.5-1.3-2.5-1.2c-1.4,0.1-2.5,1.2-2.6,2.6c0,0.8,0.2,1.5,0.8,2c0.5,0.5,1.2,0.8,2,0.8
	c0.9,0,1.8-0.5,2.3-1.2c-0.3,1-0.7,1.8-1.4,2.6c-0.1,0.1-0.1,0.3-0.1,0.4c0.1,0.1,0.2,0.2,0.4,0.2h0.6h2.9h0.6
	c0.2,0,0.3-0.1,0.4-0.2c0.1-0.1,0-0.3-0.1-0.4c-0.7-0.7-1.2-1.6-1.4-2.6c0.5,0.8,1.4,1.2,2.3,1.2c0.8,0,1.5-0.3,2-0.8
	c0.5-0.5,0.8-1.3,0.8-2C29.6,23.2,28.5,22,27.1,21.9z M21.7,20.2c0-0.5,0.2-1,0.6-1.4c0.4-0.4,0.8-0.5,1.4-0.5c0,0,0.1,0,0.1,0
	c1,0,1.8,0.8,1.9,1.8c0,0.8-0.4,1.5-1.1,1.9c-0.3,0.1-0.5,0.4-0.6,0.7c-0.2,0.5-0.3,0.9-0.3,1.4c-0.1-0.5-0.2-1-0.3-1.4
	c-0.1-0.3-0.3-0.5-0.6-0.7C22.1,21.6,21.7,20.9,21.7,20.2z M24.9,28.7h-2.5c0.7-1,1.1-2.1,1.2-3.2C23.8,26.6,24.2,27.7,24.9,28.7z
	 M28.3,26.1c-0.4,0.4-0.9,0.6-1.4,0.6c-0.7,0-1.4-0.4-1.7-1.1c-0.1-0.3-0.4-0.5-0.7-0.6c-0.1,0-0.2-0.1-0.4-0.1c0,0-0.1,0-0.1,0
	c-0.1,0-0.2,0-0.3,0.1c-0.1,0.1-0.1,0.1-0.1,0.2c0-0.1-0.1-0.2-0.1-0.2c-0.1-0.1-0.2-0.1-0.4-0.1c-0.1,0-0.2,0.1-0.4,0.1
	c-0.3,0.1-0.5,0.3-0.7,0.6c-0.3,0.7-1,1.1-1.7,1.1c-0.5,0-1-0.2-1.4-0.6c-0.4-0.4-0.6-0.9-0.5-1.4c0-1,0.8-1.8,1.8-1.9
	c0.8,0,1.5,0.4,1.9,1.1c0.1,0.3,0.4,0.5,0.7,0.6c0.1,0,0.2,0.1,0.4,0.1c0.1,0,0.3,0,0.4-0.1c0.1-0.1,0.1-0.1,0.1-0.2
	c0,0.1,0.1,0.2,0.1,0.2c0.1,0.1,0.2,0.1,0.4,0.1c0.1,0,0.2-0.1,0.4-0.1c0.3-0.1,0.5-0.3,0.7-0.6c0.4-0.7,1.1-1.1,1.9-1.1
	c1,0.1,1.8,0.9,1.8,1.9C28.9,25.2,28.7,25.7,28.3,26.1z"/>
<path fill-opacity="0.5" class="st0" d="M8.9,18.2c-1,0-1.9,0.4-2.5,1.1c-0.7-0.7-1.6-1.1-2.5-1.1c-1.9,0-3.5,1.6-3.5,3.6c0,1.7,1,3.5,2.9,5.4
	c1.4,1.3,2.8,2.2,2.9,2.2c0.1,0,0.1,0.1,0.2,0.1c0.1,0,0.1,0,0.2-0.1c0.1,0,1.5-0.9,2.9-2.2c2-1.8,2.9-3.6,2.9-5.4
	C12.4,19.8,10.8,18.2,8.9,18.2z M6.4,28.6c-1-0.6-5.2-3.5-5.2-6.8c0-1.6,1.2-2.8,2.7-2.8c0.9,0,1.7,0.5,2.2,1.2
	c0.1,0.1,0.2,0.2,0.3,0.2s0.3-0.1,0.3-0.2C7.2,19.5,8,19,8.9,19c1.5,0,2.7,1.3,2.7,2.8C11.6,25.1,7.3,28,6.4,28.6z"/>
<path fill-opacity="0.5" class="st0" d="M17.8,6.9c1.8,1.3,4.2,3.7,5.5,5.5c0.1,0.1,0.2,0.2,0.3,0.2c0.1,0,0.2-0.1,0.3-0.2c1.3-1.8,3.7-4.2,5.5-5.5
	c0.1-0.1,0.2-0.2,0.2-0.3c0-0.1-0.1-0.2-0.2-0.3c-1.8-1.3-4.2-3.7-5.5-5.5c-0.1-0.1-0.2-0.2-0.3-0.2c-0.1,0-0.2,0.1-0.3,0.2
	c-1.3,1.8-3.7,4.2-5.5,5.5c-0.1,0.1-0.2,0.2-0.2,0.3C17.6,6.7,17.7,6.8,17.8,6.9z M23.6,1.6c1.3,1.7,3.3,3.7,5,5
	c-1.7,1.3-3.7,3.3-5,5c-1.3-1.7-3.3-3.7-5-5C20.4,5.2,22.3,3.3,23.6,1.6z"/>
<path fill-opacity="0.5" class="st0" d="M6.8,0.6c-0.1-0.1-0.3-0.1-0.4,0c-0.2,0.1-5.6,3.2-5.6,7c0,1.9,1.5,3.4,3.4,3.4c0.4,0,0.7-0.1,1.1-0.2
	c-0.3,0.6-0.6,1.1-1.1,1.6C4,12.4,4,12.6,4,12.8C4.1,12.9,4.3,13,4.4,13h4.3c0.2,0,0.3-0.1,0.4-0.2c0.1-0.1,0-0.3-0.1-0.4
	c-0.4-0.5-0.8-1-1.1-1.6c0.3,0.1,0.7,0.2,1,0.2c1.9,0,3.4-1.5,3.4-3.4C12.4,3.8,7,0.7,6.8,0.6z M9,10.1c-0.6,0-1.1-0.2-1.6-0.5
	C7.3,9.5,7.1,9.5,7,9.6S6.8,9.9,6.8,10c0.2,0.8,0.6,1.5,1.1,2.2H5.3c0.5-0.7,0.8-1.4,1.1-2.2c0-0.2,0-0.3-0.2-0.4
	C6,9.5,5.8,9.5,5.7,9.6c-0.5,0.4-1,0.5-1.6,0.5c-1.4,0-2.6-1.2-2.6-2.6c0-1.7,1.4-3.3,2.6-4.3c1-0.9,2.5-1.8,2.5-1.8S8,2.3,9,3.2
	c2.1,1.9,2.6,3.4,2.6,4.3C11.6,9,10.4,10.1,9,10.1z"/>
</svg>
